<?xml version="1.0" standalone="no"?><!DOCTYPE svg PUBLIC "-//W3C//DTD SVG 1.1//EN" "http://www.w3.org/Graphics/SVG/1.1/DTD/svg11.dtd"><svg t="1539140072918" class="icon" style="" viewBox="0 0 1024 1024" version="1.1" xmlns="http://www.w3.org/2000/svg" p-id="3975" data-spm-anchor-id="a313x.7781069.0.i2" xmlns:xlink="http://www.w3.org/1999/xlink" width="200" height="200"><defs><style type="text/css"></style></defs><path d="M345.746286 704.585143q87.405714 0 146.870857-59.465143 7.972571-10.313143 1.682286-20.553143l-25.746286-46.884571q-3.437714-7.460571-13.677714-9.728-9.142857-1.170286-15.433143 6.290286l-2.267429 1.682286q-2.267429 2.267429-6.582857 5.705143t-10.020571 7.460571-13.458286 8.265143-16.310857 7.68-19.163429 5.412571-21.430857 1.974857q-43.446857 0-71.460571-28.598857t-28.013714-72.557714q0-43.446857 27.428571-71.68t69.705143-28.306286q21.138286 0 40.886857 7.972571t28.891429 16.018286l9.142857 7.972571q6.290286 6.290286 14.848 5.705143 9.142857-1.170286 13.677714-7.972571l30.281143-44.544q7.460571-11.410286-1.170286-22.308571-1.682286-2.267429-6.290286-6.875429t-17.115429-13.458286-27.721143-16.018286-38.546286-12.873143-49.152-5.705143q-84.553143 0-140.580571 55.149714t-56.027429 137.435429q0 83.456 55.442286 138.020571t141.165714 54.564571zM705.682286 704.585143q87.405714 0 146.870857-59.465143 7.972571-10.313143 2.267429-20.553143l-25.746286-46.884571q-4.534857-7.972571-14.262857-9.728-9.142857-1.170286-15.433143 6.290286l-2.267429 1.682286q-2.267429 2.267429-6.582857 5.705143t-10.020571 7.460571-13.458286 8.265143-16.310857 7.68-19.163429 5.412571-21.430857 1.974857q-43.446857 0-71.460571-28.598857t-28.013714-72.557714q0-43.446857 27.428571-71.68t69.705143-28.306286q21.138286 0 40.886857 7.972571t28.891429 16.018286l9.142857 7.972571q6.290286 6.290286 14.848 5.705143 9.142857-1.170286 13.677714-7.972571l30.281143-44.544q7.460571-11.410286-1.170286-22.308571-1.682286-2.267429-6.290286-6.875429t-17.115429-13.458286-27.721143-16.018286-38.546286-12.873143-49.152-5.705143q-83.968 0-140.288 55.149714t-56.32 137.435429q0 83.456 55.442286 138.020571t141.165714 54.564571zM512 91.428571q-85.723429 0-163.401143 33.426286t-133.997714 89.746286-89.746286 133.997714-33.426286 163.401143 33.426286 163.401143 89.746286 133.997714 133.997714 89.746286 163.401143 33.426286 163.401143-33.426286 133.997714-89.746286 89.746286-133.997714 33.426286-163.401143-33.426286-163.401143-89.746286-133.997714-133.997714-89.746286-163.401143-33.426286zM512 0q104.009143 0 198.875429 40.594286t163.401143 109.129143 109.129143 163.401143 40.594286 198.875429-40.594286 198.875429-109.129143 163.401143-163.401143 109.129143-198.875429 40.594286-198.875429-40.594286-163.401143-109.129143-109.129143-163.401143-40.594286-198.875429 40.594286-198.875429 109.129143-163.401143 163.401143-109.129143 198.875429-40.594286z" p-id="3976" fill="#dbe1ec"></path></svg>
